<svg width="218" height="216" viewBox="0 0 218 216" fill="none" xmlns="http://www.w3.org/2000/svg">
<path d="M9.81498 208.749L8.32636 207.988C7.26342 207.445 6.83732 206.99 6.83594 206.396C6.83495 205.939 7.52353 201.39 8.36648 196.288L9.89883 187.012L8.30974 178.905C7.43584 174.447 6.82796 170.519 6.95918 170.176C7.20341 169.539 10.6723 167.731 11.6756 167.719C11.9827 167.715 12.8802 166.706 13.6703 165.478C15.3508 162.864 15.1719 162.898 20.8298 164.119C23.0611 164.601 27.9468 165.64 31.6871 166.429L38.4875 167.863L41.8277 166.222L45.1679 164.582L48.9827 166.141L52.7975 167.7L54.8105 165.688L56.8237 163.676L58.3919 154.264L59.9603 144.852L58.7302 142.769C58.0538 141.623 56.0216 138.504 54.2143 135.838L50.9281 130.99L43.6756 128.61C39.6868 127.301 36.3001 126.043 36.1497 125.814C35.9993 125.585 35.8737 124.184 35.8706 122.702C35.8638 119.464 35.4232 119.848 43.0682 116.441C47.3273 114.543 48.6946 114.08 49.0866 114.406C49.3655 114.638 49.8005 115.754 50.0535 116.887L50.5133 118.945L52.0275 118.707C54.4745 118.322 56.3328 117.75 56.3328 117.382C56.3328 117.194 55.7331 114.84 55.0002 112.151C54.267 109.463 53.7594 107.022 53.872 106.729C54.0181 106.347 54.7134 106.194 56.3023 106.194H58.5279L60.2541 108.618L61.9802 111.042H64.3488H66.7173L66.828 108.711L66.9388 106.381L71.6607 104.765L76.3826 103.149L77.0261 99.4655C77.38 97.4396 77.7776 95.6069 77.9098 95.3928C78.136 95.026 85.3564 91.6815 87.7788 90.8216C88.3928 90.6037 89.0761 90.2849 89.2971 90.1133C89.5181 89.9419 91.4993 86.1909 93.6996 81.7779L97.7001 73.7542H99.3449H100.99V76.9236V80.093H102.118C102.77 80.093 103.335 79.8603 103.457 79.5418C103.573 79.2386 103.31 76.8633 102.871 74.2632C102.433 71.6632 102.21 69.3995 102.376 69.2331C102.542 69.0665 104.83 68.8831 107.461 68.8253L112.243 68.7203L112.962 66.3708C113.358 65.0785 113.902 63.9364 114.172 63.8328C114.441 63.7292 116.294 64.325 118.289 65.157C120.284 65.9889 121.978 66.6696 122.054 66.6696C122.129 66.6696 122.685 65.6887 123.289 64.49L124.387 62.3105L123.097 61.694C121.152 60.7648 121.129 60.1349 122.972 58.2537L124.587 56.6048L123.158 52.2056L121.728 47.8065L120.104 47.1336L118.481 46.4605V39.9648V33.4689L120.159 30.1206L121.837 26.7721L128.811 23.2839C132.647 21.3652 135.995 19.8691 136.25 19.9591C136.866 20.1754 136.842 22.2447 136.16 27.7186C135.855 30.1718 135.604 32.3784 135.602 32.6224C135.601 32.8665 136.227 33.1181 136.995 33.1817L138.39 33.2975L138.485 35.7211L138.58 38.1448L135.934 39.8221C134.092 40.9895 133.071 41.9245 132.575 42.8982L131.863 44.2973H133.191C133.922 44.2973 134.972 44.5275 135.525 44.8092C136.077 45.0908 136.909 45.4385 137.372 45.5818C138.138 45.8186 138.205 45.7329 138.116 44.6413C138.029 43.571 138.2 43.3345 139.693 42.4674C140.614 41.9323 143.16 40.6571 145.35 39.6333L149.332 37.772L149.351 36.2933C149.366 35.0255 149.124 34.566 147.655 33.0717C146.321 31.715 145.795 30.8036 145.277 28.9573C144.912 27.6529 143.483 22.7265 142.102 18.0097C140.72 13.2929 139.412 8.6958 139.194 7.79428C138.942 6.74931 138.556 6.09131 138.129 5.97961C137.761 5.88311 137.46 5.51762 137.46 5.16703C137.46 4.81664 137.046 4.1399 136.539 3.66318C135.664 2.83906 135.608 2.8314 135.393 3.50494C134.677 5.7474 134.534 5.89126 133.019 5.89126C131.681 5.89126 131.141 6.23871 127.368 9.52674C125.073 11.5263 122.069 14.1297 120.692 15.312L118.187 17.4616L114.705 16.6244C111.823 15.9314 110.439 15.3164 106.665 13.052C104.158 11.5477 102.106 10.1012 102.106 9.83756C102.106 9.57391 102.52 8.57814 103.026 7.62481C103.532 6.67132 103.864 5.89126 103.763 5.89126C103.662 5.89126 103.92 5.22295 104.336 4.40623L105.092 2.92133L103.487 3.14186L101.883 3.36214M204.626 214.124L205.984 212.463L204.936 212.457C204.359 212.454 203.701 212.328 203.473 212.178C203.246 212.027 200.441 207.768 197.24 202.714L191.421 193.524V188.105V182.686L189.095 180.915C185.573 178.234 176.292 171.15 173.528 169.034C172.181 168.003 169.467 165.929 167.496 164.426C165.526 162.923 163.84 161.412 163.749 161.07C163.659 160.727 163.28 158.868 162.906 156.937L162.226 153.427L160.542 152.351C158.649 151.142 159.067 150.935 156.787 154.21C155.829 155.586 155.578 155.75 154.942 155.409C154.285 155.056 154.206 154.618 154.206 151.299V147.583H152.887C152.162 147.583 150.495 147.853 149.183 148.183C146.914 148.754 146.807 148.831 146.986 149.768C147.089 150.31 147.387 152.549 147.648 154.745L148.123 158.737L152.217 162.645L156.312 166.553L157.771 170.52L159.23 174.488L162.126 176.79L165.022 179.091L168.638 179.277C172.005 179.451 172.263 179.52 172.371 180.277C172.434 180.725 172.224 181.6 171.903 182.222L171.319 183.354L174.578 185.629C176.371 186.88 179.931 189.368 182.489 191.157L187.141 194.41V196.813C187.141 198.802 187.029 199.237 186.492 199.341C186.135 199.41 183.839 198.446 181.39 197.199L176.937 194.932L176.522 196.477C176.113 197.998 176.13 198.046 177.623 199.57C179.067 201.044 179.14 201.229 179.14 203.425V205.731L177.3 206.523C175.786 207.176 175.016 207.904 172.951 210.635C171.064 213.131 170.228 213.954 169.581 213.954C169.104 213.954 168.72 214.18 168.72 214.46M146.935 214.527C145.576 212.886 145.763 212.316 148.051 211.116L150.083 210.05L154.347 210.914C158.448 211.746 158.723 211.757 161.526 211.199C163.129 210.88 165.328 210.507 166.413 210.371C168.325 210.132 168.415 210.068 169.319 208.281L170.251 206.438L168.734 201.879C167.265 197.462 167.176 197.305 165.875 196.833C165.014 196.522 162.743 194.573 159.557 191.411L154.583 186.476L151.392 185.631L148.201 184.787L145.006 180.727C141.823 176.682 141.805 176.667 140.202 176.667C138.213 176.667 138.332 176.839 134.663 168.656C133.102 165.172 131.643 162.21 131.421 162.073C131.2 161.936 129.194 161.542 126.964 161.198C122.314 160.48 123.219 160.168 117.922 164.322C111.832 169.099 110.132 170.209 107.642 171.033L105.177 171.849L101.13 170.188C98.9037 169.274 96.4598 168.26 95.6987 167.936C94.9379 167.611 94.0948 167.345 93.8255 167.345C93.5561 167.345 92.2109 168.194 90.8363 169.231L88.3371 171.116V176.084V181.052L81.8737 185.021C78.3189 187.205 75.1587 189.28 74.8511 189.634C74.0637 190.539 67.4971 201.308 67.4971 201.694C67.4971 201.869 68.2048 203.441 69.0698 205.189L70.6427 208.367L69.349 209.615M215.108 21.0962C214.444 20.0964 214.308 20.0605 211.194 20.0605H207.968L205.462 25.0978L202.957 30.1351L202.949 36.75C202.942 42.6774 202.846 43.6917 202.021 46.508C201.031 49.8877 201.495 49.2908 193.387 57.611C192.353 58.6721 191.94 58.8392 190.354 58.8392H188.518L188.077 56.8818C187.285 53.3624 186.927 52.5003 186.258 52.5003C185.906 52.5003 179.865 54.6713 172.832 57.3248L160.045 62.1489L158.335 61.2746C156.721 60.4494 156.566 60.2306 155.574 57.3826C154.712 54.9071 154.383 54.3647 153.746 54.3647C153.318 54.3647 151.028 55.5687 148.657 57.0401C146.285 58.5117 143.433 60.2735 142.32 60.9553C141.206 61.6372 139.908 62.1952 139.436 62.1952C138.688 62.1952 138.576 62.0099 138.576 60.7721C138.576 59.4278 138.443 59.2636 136.157 57.8038C134.729 56.8916 133.738 55.9984 133.738 55.6231C133.738 55.2735 132.722 53.9266 131.479 52.63C129.164 50.2137 129.05 49.8527 130.037 48.026C130.288 47.5605 130.384 47.5918 130.605 48.2124C131.805 51.5763 131.634 51.4286 134.192 51.3067L136.529 51.1954L137.531 49.3354C138.572 47.401 138.634 47.4212 139.233 49.8902C139.642 51.575 140.185 51.6311 145.643 50.5505C150.515 49.5857 150.905 49.1985 148.923 47.2899C147.757 46.1664 147.73 46.0831 148.405 45.6674C148.797 45.4264 149.405 44.956 149.756 44.6217C150.355 44.0528 150.416 44.1357 150.719 45.9269L151.043 47.8396H155.137H159.23L159.34 45.4157C159.449 43.0212 159.476 42.9665 161.561 40.8482L163.673 38.7041H166.895C169.03 38.7041 170.241 38.5467 170.483 38.2379C170.684 37.9817 171.202 36.2617 171.634 34.4161C175.777 16.7208 177.378 10.1471 177.589 9.96659C177.725 9.84959 179.805 8.1921 182.21 6.28319C184.615 4.37427 186.583 2.66618 186.583 2.48752M214.383 13.5435C212.173 14.8719 210.214 15.9588 210.029 15.9588C209.51 15.9588 207.795 13.5444 207.795 12.8135C207.795 12.2017 210.566 7.85415 211.291 7.32716C211.782 6.97099 211.26 5.89126 210.598 5.89126C209.779 5.89126 209.892 5.36481 210.991 4.05547C212.366 2.41843 213.467 2.53261 214.307 4.39972C214.739 5.35918 215.224 5.89126 215.666 5.89126C216.447 5.89126 216.574 6.64008 215.908 7.3082C215.662 7.55429 215.537 7.75553 215.631 7.75553M2.76316 87.6904C4.22646 90.0744 5.63967 92.0249 5.90364 92.0249C6.16745 92.0249 8.36965 91.282 10.7972 90.3739C13.2248 89.466 17.9741 87.6984 21.3513 86.446C24.7285 85.1936 27.6826 84.0489 27.9159 83.9021C28.1491 83.7554 28.7452 81.2863 29.2408 78.4152L30.1415 73.1948L29.3523 68.5956L28.5629 63.9966L30.9114 62.3173C32.203 61.3938 33.2599 60.5105 33.2599 60.3546C33.2599 59.7306 28.4344 49.9919 27.9085 49.5546C27.5986 49.2969 25.4384 48.7339 23.108 48.3037L18.8711 47.521L16.2968 48.4261C13.794 49.3058 13.6681 49.4123 11.7697 52.2473C9.585 55.5101 9.58438 56.3332 11.7656 56.802C13.5152 57.1779 13.6588 57.3399 12.9447 58.1306C12.3932 58.7412 11.7589 58.84 8.36166 58.8449C6.19307 58.8481 4.22008 58.9773 3.97712 59.1321C3.47211 59.4538 2 62.7334 2 63.5366C2 63.8302 2.49959 64.3748 3.11023 64.747L4.22034 65.4234L3.11023 66.4891C2.49959 67.0752 2 67.7925 2 68.0829C2 69.0192 5.36193 72.4365 6.47911 72.6355L7.52537 72.822L5.65078 77.371L3.77606 81.9199L2.05409 82.032M46.6732 4.30653C49.1994 6.00499 50.1618 6.24904 50.5312 5.28471C50.8406 4.47694 50.5104 4.13065 47.3983 2M121.955 205.629L120.032 203.647L119.257 197.259C118.83 193.746 118.481 190.125 118.481 189.214V187.556L121.281 186.533C124.365 185.406 124.331 185.536 122.112 183.271C121.573 182.722 121.458 181.925 121.458 178.77V174.936L124.23 172.259C126.903 169.679 128.323 168.986 128.735 170.06C128.835 170.323 128.579 173.182 128.165 176.413C127.286 183.276 127.242 184.495 127.877 184.504C128.133 184.508 129.231 185.339 130.316 186.351C132.095 188.009 132.271 188.312 132.095 189.42C131.988 190.097 131.637 193.251 131.316 196.429C130.994 199.608 130.649 202.596 130.548 203.069C130.427 203.638 129.394 204.551 127.493 205.772C125.913 206.786 124.454 207.614 124.249 207.613C124.044 207.612 123.012 206.719 121.955 205.629ZM83.9434 202.37C82.3871 201.271 81.2663 200.211 81.2663 199.838C81.2663 199.429 82.0141 198.827 83.3213 198.185C85.0292 197.346 85.8736 197.175 88.3202 197.175C92.1934 197.175 92.3792 197.628 89.9482 201.147C88.1305 203.777 87.6892 204.244 87.0135 204.254C86.7973 204.257 85.4158 203.409 83.9434 202.37ZM185.075 27.8544C184.24 26.2928 183.231 22.8926 183.433 22.3226C183.744 21.4411 190.664 16.6201 191.279 16.8564C192.21 17.2146 192.294 18.197 191.468 19.0781C190.791 19.7999 190.675 20.3777 190.671 23.0675C190.667 24.7974 190.542 26.3988 190.391 26.6261C190.074 27.1061 186.724 28.6365 185.99 28.6365C185.716 28.6365 185.304 28.2846 185.075 27.8544ZM33.0739 105.904C31.646 105.123 31.2131 104.679 31.2131 103.998C31.2131 103.387 32.7811 101.334 36.2371 97.4208C40.6868 92.3824 41.4098 91.7168 42.5634 91.5988L43.866 91.4656L41.8242 90.0675C39.9321 88.7717 39.5866 88.6691 37.1125 88.6691C34.588 88.6691 34.3901 88.6066 33.4791 87.5219C32.9492 86.8908 32.5157 86.2276 32.5157 86.0478C32.5157 85.6119 33.5434 84.9021 37.5396 82.5784C40.8685 80.6426 40.8889 80.6216 40.8889 79.15V77.6693L38.5444 77.5579C35.4927 77.4128 35.2456 76.8383 37.3233 74.7171L38.8826 73.1252L38.264 71.5761C37.2432 69.0199 37.4307 68.9068 42.6869 68.9068H47.2993L47.7518 66.017C48.0008 64.4277 48.2931 62.7498 48.4014 62.2884C48.5629 61.6007 48.4402 61.4484 47.7208 61.4437C47.238 61.4406 46.6676 61.3147 46.4531 61.164C45.6362 60.5902 44.052 57.352 44.052 56.2559C44.052 54.9075 44.0826 54.9106 39.9585 55.8511L36.7953 56.5725L35.3892 55.1731L33.9833 53.7737L34.9201 49.8013C36.1675 44.5115 35.7964 43.3045 33.8646 46.3686C33.0637 47.6386 32.5955 48.037 32.0037 47.9524C31.3231 47.8551 31.1873 47.5281 31.0272 45.6022L30.8409 43.3651L28.6082 43.1786C26.7336 43.022 26.3584 42.8724 26.2697 42.2464C26.1897 41.6817 26.7512 41.1385 28.5823 40.0091C30.6029 38.7631 31.0027 38.3483 31.0137 37.4879C31.0266 36.4939 30.9755 36.4664 29.5386 36.6967C28.0906 36.9286 28.0501 36.9058 28.0565 35.862C28.0601 35.2719 28.5625 33.2032 29.173 31.2651C29.7833 29.3269 30.2827 27.607 30.2827 27.4432C30.2827 27.2792 29.4683 27.145 28.4729 27.145C26.7835 27.145 26.5484 27.0221 24.9375 25.2966C23.9886 24.2799 23.2121 23.1214 23.2121 22.722C23.2121 22.251 23.8261 21.6351 24.9584 20.9702C26.5423 20.0402 26.8453 19.9827 28.2146 20.3515C29.0452 20.5752 29.824 20.6431 29.9456 20.5026C30.1865 20.224 31.0483 17.9906 32.9218 12.7894C33.5866 10.9438 34.2933 9.21996 34.4921 8.95895C34.7656 8.5999 36.4053 8.50905 41.2207 8.5861L47.5874 8.68785L48.6066 10.7386C49.1672 11.8666 49.6277 12.9773 49.6301 13.2067C49.6323 13.4362 48.6252 14.2579 47.392 15.0325C45.0054 16.5319 42.9357 18.6133 42.9357 19.5142C42.9357 19.9727 43.9557 20.0605 49.2803 20.0605H55.6249L56.3429 21.6452C57.4099 24.0006 57.2628 24.8498 55.2912 27.7171C50.0343 35.3625 47.3322 39.505 47.4955 39.6685C47.596 39.7693 49.4614 40.156 51.6405 40.528C53.8198 40.9 55.665 41.2709 55.7409 41.3526C55.8169 41.4341 57.3288 44.5209 59.1006 48.2124C61.4409 53.0879 62.7631 55.3832 63.9336 56.6021C65.396 58.1249 65.6936 58.7793 67.1551 63.6865C68.5612 68.4083 68.9679 69.3286 70.364 70.9513C71.2433 71.9731 71.9627 73.0275 71.9627 73.2943C71.9627 73.561 71.3766 74.1258 70.6604 74.5493C69.3897 75.3004 68.9565 75.9914 69.7559 75.9914C69.9749 75.9914 70.8842 75.4879 71.7766 74.8727C72.6691 74.2574 73.7169 73.7542 74.1051 73.7542C74.5709 73.7542 75.7193 75.0097 77.4804 77.4447C78.9486 79.4743 80.1498 81.2387 80.1498 81.3653C80.1498 81.4919 78.4786 83.5577 76.4358 85.956L72.7217 90.3166L74.6674 91.1003C75.7376 91.5312 76.66 92.1283 76.7175 92.4272C76.775 92.7261 75.9878 93.9086 74.968 95.055L73.114 97.1392L70.2125 97.3823C68.6166 97.516 65.3852 97.8137 63.0314 98.0441L58.7518 98.4628L57.0643 100.091C56.1362 100.987 55.1495 101.72 54.8716 101.72C54.5937 101.72 53.3211 101.058 52.0434 100.25L49.7202 98.7794L47.8467 99.4107C46.1788 99.9725 45.8885 100.236 45.2003 101.813C44.3035 103.868 43.9246 103.954 41.0573 102.76C39.9698 102.308 39.0263 102.098 38.961 102.295C38.6632 103.19 35.7597 106.939 35.3703 106.931C35.1305 106.926 34.0973 106.464 33.0739 105.904ZM20.2676 21.7777C19.9389 21.381 19.9889 20.4829 20.4792 17.9828C21.0537 15.0538 21.3059 14.488 22.8649 12.6299C25.775 9.1617 26.8603 8.2713 27.5983 8.74724C28.3564 9.23607 28.3505 9.64223 27.5283 13.5352C26.9069 16.4785 26.8603 16.5566 24.0405 19.4078C22.4687 20.9972 21.0737 22.2976 20.9404 22.2976C20.8073 22.2976 20.5043 22.0637 20.2676 21.7777Z" stroke="white" stroke-width="3"/>
<path fill-rule="evenodd" clip-rule="evenodd" d="M96.0648 116.507C101.153 128.734 81.7284 147.108 81.7284 147.108C81.7284 147.108 63.0031 128.734 68.0914 116.507C73.2976 103.996 90.8586 103.996 96.0648 116.507ZM82.2148 127.124C85.5286 127.124 88.2148 124.437 88.2148 121.124C88.2148 117.81 85.5286 115.124 82.2148 115.124C78.9011 115.124 76.2148 117.81 76.2148 121.124C76.2148 124.437 78.9011 127.124 82.2148 127.124Z" fill="#EB902E"/>
<path fill-rule="evenodd" clip-rule="evenodd" d="M180.065 104.507C185.153 116.734 165.728 135.108 165.728 135.108C165.728 135.108 147.003 116.734 152.091 104.507C157.298 91.996 174.859 91.996 180.065 104.507ZM166.215 115.124C169.529 115.124 172.215 112.437 172.215 109.124C172.215 105.81 169.529 103.124 166.215 103.124C162.901 103.124 160.215 105.81 160.215 109.124C160.215 112.437 162.901 115.124 166.215 115.124Z" fill="#35A1D1"/>
<path fill-rule="evenodd" clip-rule="evenodd" d="M72.0648 61.5066C77.1531 73.734 57.7284 92.108 57.7284 92.108C57.7284 92.108 39.0031 73.734 44.0914 61.5066C49.2976 48.996 66.8586 48.996 72.0648 61.5066ZM58.2148 72.1236C61.5286 72.1236 64.2148 69.4373 64.2148 66.1236C64.2148 62.8099 61.5286 60.1236 58.2148 60.1236C54.9011 60.1236 52.2148 62.8099 52.2148 66.1236C52.2148 69.4373 54.9011 72.1236 58.2148 72.1236Z" fill="#CD3B28"/>
<path fill-rule="evenodd" clip-rule="evenodd" d="M134.065 76.5066C139.153 88.734 119.728 107.108 119.728 107.108C119.728 107.108 101.003 88.734 106.091 76.5066C111.298 63.996 128.859 63.996 134.065 76.5066ZM120.215 87.1236C123.529 87.1236 126.215 84.4373 126.215 81.1236C126.215 77.8099 123.529 75.1236 120.215 75.1236C116.901 75.1236 114.215 77.8099 114.215 81.1236C114.215 84.4373 116.901 87.1236 120.215 87.1236Z" fill="#72B026"/>
</svg>
